<?xml version="1.0" encoding="UTF-8"?>
<svg xmlns="http://www.w3.org/2000/svg" xmlns:xlink="http://www.w3.org/1999/xlink" width="107pt" height="45pt" viewBox="0 0 107 45" version="1.1">
<g id="surface1">
<path style=" stroke:none;fill-rule:nonzero;fill:rgb(0%,0%,0%);fill-opacity:1;" d="M 1.324219 0.109375 C 0.871094 0.242188 0.230469 0.914062 0.101562 1.382812 C 0.03125 1.664062 0.0117188 8.183594 0.0195312 22.71875 L 0.0507812 43.667969 L 0.289062 44.046875 C 0.421875 44.257812 0.710938 44.546875 0.933594 44.699219 L 1.34375 44.96875 L 105.65625 44.96875 L 106.066406 44.699219 C 106.289062 44.546875 106.578125 44.257812 106.710938 44.046875 L 106.949219 43.667969 L 106.949219 1.355469 L 106.710938 0.972656 C 106.578125 0.761719 106.289062 0.472656 106.066406 0.320312 L 105.65625 0.0507812 L 53.660156 0.03125 C 21.050781 0.0195312 1.53125 0.0507812 1.324219 0.109375 Z M 102.390625 22.511719 L 102.390625 40.40625 L 4.609375 40.40625 L 4.609375 4.613281 L 102.390625 4.613281 Z M 102.390625 22.511719 "/>
<path style=" stroke:none;fill-rule:nonzero;fill:rgb(46.666667%,93.72549%,89.803922%);fill-opacity:1;" d="M 53.617188 21.992188 C 53.617188 17.285156 49.804688 13.46875 45.101562 13.46875 C 40.398438 13.46875 36.585938 17.285156 36.585938 21.992188 C 36.585938 26.699219 40.398438 30.515625 45.101562 30.515625 C 49.804688 30.515625 53.617188 26.699219 53.617188 21.992188 Z M 53.617188 21.992188 "/>
<path style=" stroke:none;fill-rule:nonzero;fill:#eff0f2;fill-opacity:1;" d="M 49.109375 21.992188 C 49.109375 19.777344 47.3125 17.980469 45.101562 17.980469 C 42.886719 17.980469 41.09375 19.777344 41.09375 21.992188 C 41.09375 24.207031 42.886719 26.003906 45.101562 26.003906 C 47.3125 26.003906 49.109375 24.207031 49.109375 21.992188 Z M 49.109375 21.992188 "/>
<path style=" stroke:none;fill-rule:nonzero;fill:rgb(0%,0%,0%);fill-opacity:1;" d="M 14.175781 17.648438 C 12.351562 17.847656 11.070312 18.589844 10.441406 19.804688 C 10.1875 20.265625 10.167969 20.40625 10.167969 21.457031 C 10.167969 22.449219 10.199219 22.671875 10.390625 23.011719 C 10.890625 23.933594 11.742188 24.484375 13.375 24.917969 C 16.441406 25.738281 16.710938 25.847656 16.941406 26.402344 C 17.042969 26.640625 17.03125 26.722656 16.863281 26.953125 C 16.5 27.433594 16.070312 27.613281 15.117188 27.652344 C 13.964844 27.714844 13.003906 27.492188 11.863281 26.921875 C 11.371094 26.671875 10.929688 26.46875 10.871094 26.46875 C 10.769531 26.480469 9.816406 28.527344 9.816406 28.746094 C 9.816406 29.039062 11.441406 29.757812 12.765625 30.039062 C 13.765625 30.261719 15.988281 30.261719 16.832031 30.039062 C 18.242188 29.667969 19.144531 29.046875 19.695312 28.054688 C 19.96875 27.554688 19.988281 27.464844 19.988281 26.359375 C 19.988281 25.246094 19.976562 25.1875 19.6875 24.707031 C 19.074219 23.722656 18.242188 23.3125 15.480469 22.609375 C 13.964844 22.21875 13.617188 22.058594 13.285156 21.628906 L 13.074219 21.347656 L 13.273438 20.976562 C 13.574219 20.425781 14.015625 20.222656 15.027344 20.171875 C 16.019531 20.125 16.820312 20.292969 17.824219 20.753906 C 18.175781 20.925781 18.515625 21.054688 18.574219 21.054688 C 18.726562 21.054688 19.566406 19.039062 19.515625 18.78125 C 19.496094 18.679688 19.257812 18.488281 18.933594 18.328125 C 17.8125 17.777344 15.699219 17.476562 14.175781 17.648438 Z M 14.175781 17.648438 "/>
<path style=" stroke:none;fill-rule:nonzero;fill:rgb(0%,0%,0%);fill-opacity:1;" d="M 89.398438 17.65625 C 87.84375 17.835938 86.671875 18.417969 85.558594 19.542969 C 84.335938 20.777344 83.855469 22.019531 83.855469 23.914062 C 83.855469 25.847656 84.335938 27.0625 85.609375 28.324219 C 86.960938 29.6875 88.324219 30.210938 90.519531 30.210938 C 91.960938 30.210938 92.683594 30.050781 93.867188 29.46875 C 95.476562 28.675781 96.671875 27.152344 97.03125 25.417969 C 97.351562 23.914062 97.160156 22.257812 96.519531 20.957031 C 95.789062 19.480469 94.144531 18.21875 92.421875 17.808594 C 91.621094 17.617188 90.277344 17.546875 89.398438 17.65625 Z M 91.933594 20.59375 C 92.703125 20.945312 93.382812 21.628906 93.746094 22.398438 C 93.984375 22.929688 94.027344 23.132812 94.027344 23.914062 C 94.027344 24.695312 93.984375 24.894531 93.746094 25.429688 C 93.015625 27.011719 91.210938 27.882812 89.609375 27.433594 C 87.996094 26.960938 86.960938 25.597656 86.960938 23.914062 C 86.960938 21.277344 89.578125 19.523438 91.933594 20.59375 Z M 91.933594 20.59375 "/>
<path style=" stroke:none;fill-rule:nonzero;fill:rgb(0%,0%,0%);fill-opacity:1;" d="M 22.640625 23.914062 L 22.640625 29.980469 L 25.75 29.980469 L 25.75 25.167969 L 30.859375 25.167969 L 30.859375 29.980469 L 33.863281 29.980469 L 33.863281 17.847656 L 30.859375 17.847656 L 30.859375 22.460938 L 25.75 22.460938 L 25.75 17.847656 L 22.640625 17.847656 Z M 22.640625 23.914062 "/>
<path style=" stroke:none;fill-rule:nonzero;fill:rgb(0%,0%,0%);fill-opacity:1;" d="M 56.503906 23.914062 L 56.503906 29.980469 L 59.511719 29.980469 L 59.511719 26.800781 L 61.34375 26.742188 C 63.347656 26.679688 63.878906 26.589844 64.78125 26.160156 C 66.3125 25.4375 67.125 24.085938 67.125 22.230469 C 67.125 20.542969 66.363281 19.222656 64.941406 18.46875 C 63.890625 17.90625 63.429688 17.847656 59.792969 17.847656 L 56.503906 17.847656 Z M 62.96875 20.65625 C 64.339844 21.335938 64.359375 23.101562 63.019531 23.863281 C 62.597656 24.09375 62.445312 24.113281 61.042969 24.144531 L 59.511719 24.183594 L 59.511719 20.335938 L 60.992188 20.375 C 62.328125 20.40625 62.515625 20.425781 62.96875 20.65625 Z M 62.96875 20.65625 "/>
<path style=" stroke:none;fill-rule:nonzero;fill:rgb(0%,0%,0%);fill-opacity:1;" d="M 69.832031 23.914062 L 69.832031 29.980469 L 72.835938 29.980469 L 72.855469 26.601562 L 72.886719 23.222656 L 75.640625 26.601562 L 78.398438 29.96875 L 79.730469 29.96875 L 81.050781 29.980469 L 81.050781 17.847656 L 78.046875 17.847656 L 78.027344 21.257812 L 77.996094 24.65625 L 75.210938 21.257812 L 72.414062 17.847656 L 69.832031 17.847656 Z M 69.832031 23.914062 "/>
</g>
</svg>
